# xmcd
#
# Track frame offsets:
# 150
# 13103
# 25234
# 38426
# 53091
# 64375
# 75540
# 88202
# 97391
# 108916
# 118537
# 132652
# 144246
# 155334
# 167782
# 182268
# 192481
# 204124
# 216788
# 229141
# 240069
# 250750
# 262466
# 274200
# 285225
# 295653
# 311229
# 323985
# 337077
#
# Disc length: 4671 seconds
#
#
# Revision: 2
# Processed by: cddbd v1.5.2PL0 Copyright (c) Steve Scherf et al.
# Submitted via: FreeRIP 2.95 
#
DISCID=a7123d1d
DTITLE=Porter Wagoner - The Rubber Room
DYEAR=2006
DGENRE=Country
TTITLE0=Out Of The Silence  (Came A Song)
TTITLE1=Rubber Room
TTITLE2=George Leroy Chickashea
TTITLE3=Cassie
TTITLE4=Fairchild
TTITLE5=Indian Creek
TTITLE6=Lonely Comin' Down
TTITLE7=Bones
TTITLE8=Jim Johnson
TTITLE9=Lonelyville
TTITLE10=My Many Hurried Southern Trips
TTITLE11=As Simple As I Am
TTITLE12=Woman Hungry
TTITLE13=First Mrs Jones
TTITLE14=The Cold Hard Facts Of Life
TTITLE15=Shopworn
TTITLE16=Julie
TTITLE17=The Carroll County Accident
TTITLE18=Let Me In
TTITLE19=Wino
TTITLE20=The Bottom Of The Bottle
TTITLE21=Nothing Between
TTITLE22=Crumbs From Another Man's Table
TTITLE23=He's Alone Again Tonight
TTITLE24=Life Rides The Train
TTITLE25=Little Boy's Prayer
TTITLE26=My Last Two Tens
TTITLE27=The Party
TTITLE28=Moments Of Meditation
EXTD=
EXTT0=
EXTT1=
EXTT2=
EXTT3=
EXTT4=
EXTT5=
EXTT6=
EXTT7=
EXTT8=
EXTT9=
EXTT10=
EXTT11=
EXTT12=
EXTT13=
EXTT14=
EXTT15=
EXTT16=
EXTT17=
EXTT18=
EXTT19=
EXTT20=
EXTT21=
EXTT22=
EXTT23=
EXTT24=
EXTT25=
EXTT26=
EXTT27=
EXTT28=
PLAYORDER=
